<svg width="2857" height="971" viewBox="0 0 2857 971" fill="none" xmlns="http://www.w3.org/2000/svg">
<path d="M2815 107L2580.5 118.5L2455 536.5L2562.5 542L2441 945L2823.5 387.5H2716.5L2815 107Z" fill="#F35F44" stroke="black"/>
<path d="M2815 107L2754.5 110C2660 471.5 2636 511.5 2441 945L2823.5 387.5H2716.5L2815 107Z" fill="#EC1D27" stroke="black"/>
<path d="M84.373 777V193.23H273.927C309.273 193.23 339.107 199.501 363.431 212.043C387.755 224.585 406.188 242.162 418.73 264.776C431.462 287.389 437.828 313.709 437.828 343.733C437.828 367.297 434.027 388.2 426.426 406.443C418.825 424.686 408.183 439.793 394.501 451.765C381.009 463.547 365.141 471.718 346.899 476.279V479.699C367.042 481.219 385.76 488.25 403.052 500.792C420.345 513.144 434.217 529.962 444.669 551.245C455.31 572.528 460.631 597.327 460.631 625.642C460.631 655.476 454.17 681.795 441.248 704.599C428.516 727.212 409.418 744.98 383.954 757.902C358.49 770.634 326.945 777 289.32 777H84.373ZM120.004 743.935H289.32C333.216 743.935 366.947 732.913 390.51 710.87C414.264 688.826 426.141 660.417 426.141 625.642C426.141 601.128 420.345 579.179 408.753 559.796C397.351 540.413 381.484 525.116 361.151 513.904C340.818 502.503 317.254 496.802 290.46 496.802H120.004V743.935ZM120.004 464.307H286.184C311.078 464.307 332.171 458.891 349.464 448.059C366.947 437.228 380.249 422.69 389.37 404.448C398.682 386.205 403.337 365.967 403.337 343.733C403.337 307.628 392.126 279.028 369.702 257.935C347.279 236.842 315.354 226.295 273.927 226.295H120.004V464.307ZM588.687 777V339.172H622.607V407.583H625.743C635.244 385.16 651.302 367.202 673.915 353.71C696.529 340.028 722.278 333.187 751.162 333.187C754.203 333.187 757.243 333.187 760.284 333.187C763.324 333.187 766.174 333.282 768.835 333.472V368.532C766.554 368.342 763.799 368.057 760.569 367.677C757.528 367.107 753.728 366.822 749.167 366.822C724.843 366.822 703.18 372.048 684.177 382.499C665.364 392.951 650.542 407.393 639.71 425.826C628.878 444.069 623.462 464.972 623.462 488.535V777H588.687ZM863.968 777V339.172H898.459V777H863.968ZM881.356 261.64C873.755 261.64 867.104 258.98 861.403 253.659C855.892 248.338 853.137 241.877 853.137 234.276C853.137 226.675 855.892 220.214 861.403 214.893C866.914 209.572 873.565 206.912 881.356 206.912C888.957 206.912 895.513 209.572 901.024 214.893C906.725 220.214 909.575 226.675 909.575 234.276C909.575 241.877 906.82 248.338 901.309 253.659C895.798 258.98 889.147 261.64 881.356 261.64ZM1214.86 786.121C1175.33 786.121 1140.94 776.335 1111.67 756.762C1082.41 737.189 1059.79 710.395 1043.83 676.379C1027.87 642.364 1019.89 603.598 1019.89 560.082C1019.89 516.375 1027.87 477.419 1043.83 443.213C1059.98 409.008 1082.12 382.024 1110.25 362.261C1138.37 342.498 1170.49 332.616 1206.59 332.616C1231.1 332.616 1254.29 337.557 1276.14 347.439C1298.19 357.13 1317.57 371.192 1334.29 389.625C1351.2 408.058 1364.41 430.291 1373.91 456.326C1383.6 482.36 1388.45 511.624 1388.45 544.119V565.782H1041.84V534.143H1353.67C1353.67 502.408 1347.21 473.808 1334.29 448.344C1321.37 422.88 1303.79 402.642 1281.56 387.63C1259.32 372.618 1234.34 365.111 1206.59 365.111C1177.52 365.111 1151.58 373.283 1128.77 389.625C1106.16 405.778 1088.2 427.631 1074.9 455.185C1061.79 482.74 1054.95 513.524 1054.38 547.54V561.792C1054.38 598.277 1060.74 631.057 1073.48 660.132C1086.4 689.016 1104.83 711.915 1128.77 728.828C1152.72 745.55 1181.41 753.911 1214.86 753.911C1238.8 753.911 1259.23 749.921 1276.14 741.94C1293.24 733.768 1307.21 723.887 1318.04 712.295C1328.88 700.703 1337.05 689.491 1342.56 678.66L1374.2 691.487C1367.55 706.119 1357.19 720.751 1343.13 735.384C1329.26 749.826 1311.58 761.893 1290.11 771.584C1268.83 781.276 1243.74 786.121 1214.86 786.121ZM1673.49 339.172V370.242H1479.38V339.172H1673.49ZM1543.23 777V271.047C1543.23 249.004 1548.26 230.191 1558.34 214.608C1568.41 199.026 1581.61 187.149 1597.96 178.978C1614.49 170.806 1632.26 166.721 1651.26 166.721C1661.33 166.721 1669.88 167.576 1676.91 169.286C1684.13 170.806 1690.41 172.612 1695.73 174.702L1685.46 205.487C1681.09 203.967 1676.34 202.636 1671.21 201.496C1666.27 200.356 1660.38 199.786 1653.54 199.786C1631.5 199.786 1613.35 206.532 1599.1 220.024C1584.84 233.516 1577.72 252.329 1577.72 276.463L1577.43 777H1543.23ZM1816.51 193.23V777H1781.74V193.23H1816.51ZM1988.4 941.185C1979.65 941.185 1971.01 940.235 1962.46 938.335C1953.91 936.435 1946.21 933.964 1939.37 930.924L1949.63 900.424C1967.49 907.265 1983.64 909.735 1998.09 907.835C2012.72 905.935 2025.64 899.284 2036.85 887.882C2048.06 876.48 2057.57 859.758 2065.36 837.714L2085.31 782.986L1924.83 339.172H1962.17L2101.27 732.248H2104.12L2243.22 339.172H2280.57L2095.86 851.396C2088.83 871.16 2079.99 887.692 2069.35 900.994C2058.71 914.296 2046.54 924.273 2032.86 930.924C2019.37 937.765 2004.55 941.185 1988.4 941.185Z" fill="#1D1D1D"/>
</svg>
